<svg width="800" height="700" viewBox="0 0 800 700" fill="none" xmlns="http://www.w3.org/2000/svg">
  <rect width="800" height="700" rx="48" fill="#F4D7AD"/>
  <ellipse cx="400" cy="548" rx="170" ry="44" fill="#5F3A20" opacity="0.28"/>
  <rect x="236" y="194" width="328" height="326" rx="34" fill="#9A6235"/>
  <path d="M236 256H564" stroke="#F5DFC6" stroke-width="18"/>
  <path d="M400 194V520" stroke="#F5DFC6" stroke-width="18"/>
  <rect x="298" y="134" width="204" height="74" rx="26" fill="#D9A46E"/>
  <path d="M321 134C321 111 341 92 365 92C386 92 403 106 408 126L411 134H321Z" fill="#E9C99D"/>
  <path d="M479 134C479 111 459 92 435 92C414 92 397 106 392 126L389 134H479Z" fill="#E9C99D"/>
  <rect x="282" y="306" width="236" height="122" rx="22" fill="#F5DFC6" opacity="0.96"/>
  <path d="M315 348H485" stroke="#9A6235" stroke-width="14" stroke-linecap="round"/>
  <path d="M338 386H462" stroke="#9A6235" stroke-width="14" stroke-linecap="round"/>
</svg>
