<svg width="800" height="700" viewBox="0 0 800 700" fill="none" xmlns="http://www.w3.org/2000/svg">
  <defs>
    <linearGradient id="bg" x1="0" y1="0" x2="0" y2="1">
      <stop offset="0%" stop-color="#F8E2BD"/>
      <stop offset="100%" stop-color="#F1CD99"/>
    </linearGradient>
    <linearGradient id="jarBody" x1="0" y1="0" x2="1" y2="1">
      <stop offset="0%" stop-color="#835023"/>
      <stop offset="50%" stop-color="#6F411D"/>
      <stop offset="100%" stop-color="#523117"/>
    </linearGradient>
    <linearGradient id="labelCream" x1="0" y1="0" x2="1" y2="1">
      <stop offset="0%" stop-color="#F6E6D1"/>
      <stop offset="100%" stop-color="#E8CCAB"/>
    </linearGradient>
    <radialGradient id="shadow" cx="50%" cy="50%" r="50%">
      <stop offset="0%" stop-color="#4C2B0F" stop-opacity="0.34"/>
      <stop offset="100%" stop-color="#4C2B0F" stop-opacity="0"/>
    </radialGradient>
    <filter id="softShadow" x="-30%" y="-30%" width="160%" height="170%">
      <feDropShadow dx="0" dy="18" stdDeviation="16" flood-color="#4A2A0F" flood-opacity="0.18"/>
    </filter>
    <filter id="grain" x="-20%" y="-20%" width="140%" height="140%">
      <feTurbulence type="fractalNoise" baseFrequency="0.8" numOctaves="2" seed="11" result="noise"/>
      <feColorMatrix in="noise" type="saturate" values="0"/>
      <feComponentTransfer>
        <feFuncA type="table" tableValues="0 0.11"/>
      </feComponentTransfer>
    </filter>
    <pattern id="granolaBits" width="40" height="40" patternUnits="userSpaceOnUse">
      <path d="M11 16C15 10 24 10 29 14C33 17 34 24 29 29C24 34 15 35 10 30C6 26 6 20 11 16Z" fill="#C88B4F" opacity="0.45"/>
      <path d="M23 9C27 5 33 5 36 9C39 13 38 18 34 21C30 24 25 23 22 19C20 15 20 12 23 9Z" fill="#E2B26E" opacity="0.38"/>
      <circle cx="9" cy="29" r="3.5" fill="#9C642E" opacity="0.42"/>
      <circle cx="32" cy="32" r="2.5" fill="#F3D9B2" opacity="0.35"/>
    </pattern>
  </defs>

  <rect width="800" height="700" rx="48" fill="url(#bg)"/>
  <ellipse cx="401" cy="548" rx="186" ry="46" fill="url(#shadow)"/>

  <g filter="url(#softShadow)">
    <path d="M269 188C269 160 291 138 319 138H481C509 138 531 160 531 188V515C531 543 509 565 481 565H319C291 565 269 543 269 515V188Z" fill="url(#jarBody)"/>
    <path d="M269 188H531V228H269V188Z" fill="#8A582E" opacity="0.5"/>
    <rect x="292" y="110" width="216" height="72" rx="28" fill="url(#labelCream)"/>
    <path d="M315 110C315 88 332 70 354 70C375 70 392 84 398 104L401 110H315Z" fill="#E7CDA2"/>
    <path d="M485 110C485 88 468 70 446 70C425 70 408 84 402 104L399 110H485Z" fill="#E7CDA2"/>
    <path d="M292 110H508" stroke="#B68B55" stroke-width="9" opacity="0.42"/>
    <rect x="301" y="240" width="198" height="170" rx="26" fill="#F3DEC0" opacity="0.96"/>
    <rect x="301" y="240" width="198" height="170" rx="26" fill="url(#granolaBits)" opacity="0.9"/>
    <rect x="301" y="240" width="198" height="170" rx="26" fill="url(#grain)" opacity="0.18"/>

    <path d="M320 290H480" stroke="#9A6235" stroke-width="12" stroke-linecap="round" opacity="0.6"/>
    <path d="M320 326H480" stroke="#9A6235" stroke-width="12" stroke-linecap="round" opacity="0.45"/>
    <path d="M320 362H480" stroke="#9A6235" stroke-width="12" stroke-linecap="round" opacity="0.35"/>

    <g transform="translate(400 292) rotate(-10)">
      <text x="-56" y="10" fill="#FFF5EA" font-family="Arial, Helvetica, sans-serif" font-size="39" font-weight="700" letter-spacing="1.5">MASKA</text>
      <path d="M-94 34C-60 24 -21 18 18 18C51 18 81 22 108 30" stroke="#FFF5EA" stroke-width="7" stroke-linecap="round" opacity="0.9"/>
    </g>

    <g transform="translate(400 525)">
      <rect x="-110" y="-22" width="220" height="28" rx="14" fill="#4A2A0F" opacity="0.12"/>
      <path d="M-96 -10C-66 -18 -34 -22 0 -22C34 -22 66 -18 96 -10" stroke="#E4C5A0" stroke-width="6" stroke-linecap="round" opacity="0.8"/>
    </g>
  </g>
</svg>
