<svg width="260" height="120" viewBox="0 0 260 120" fill="none" xmlns="http://www.w3.org/2000/svg">
  <rect width="260" height="120" fill="white" fill-opacity="0"/>
  <path d="M28 74C38 61 49 53 61 53C67 53 72 55 76 60C79 55 84 52 90 52C98 52 103 57 103 66V88H92V68C92 62 89 59 84 59C79 59 75 63 73 70V88H62V68C62 62 59 59 54 59C49 59 45 63 43 70V88H32V74H28Z" fill="#111111"/>
  <path d="M112 88V52H123V57C126 53 130 51 136 51C147 51 154 59 154 70C154 81 147 89 136 89C130 89 126 87 123 83V102H112V88ZM134 79C140 79 143 75 143 70C143 65 140 61 134 61C128 61 123 65 123 70C123 75 128 79 134 79Z" fill="#111111"/>
  <path d="M161 88V52H172V56C175 53 179 51 184 51C190 51 194 53 197 58C200 53 205 51 211 51C221 51 227 57 227 66V88H216V69C216 63 213 60 208 60C203 60 199 64 197 70V88H186V69C186 63 183 60 178 60C173 60 169 64 167 70V88H161Z" fill="#111111"/>
  <path d="M238 74L242 88H232L220 52H231L238 74Z" fill="#111111"/>
  <path d="M34 48C36 31 42 19 55 13C68 7 84 8 97 15" stroke="#111111" stroke-width="4.5" stroke-linecap="round"/>
  <path d="M95 14C114 10 133 15 146 28" stroke="#111111" stroke-width="4.5" stroke-linecap="round"/>
  <text x="180" y="18" fill="#111111" font-family="Arial, Helvetica, sans-serif" font-size="14" font-weight="700">TM</text>
</svg>
