<svg width="1200" height="900" viewBox="0 0 1200 900" fill="none" xmlns="http://www.w3.org/2000/svg">
  <defs>
    <linearGradient id="bg" x1="120" y1="100" x2="1080" y2="820" gradientUnits="userSpaceOnUse">
      <stop stop-color="#FFF4EA"/>
      <stop offset="1" stop-color="#E1B78D"/>
    </linearGradient>
    <linearGradient id="box" x1="388" y1="274" x2="822" y2="692" gradientUnits="userSpaceOnUse">
      <stop stop-color="#4C2D1F"/>
      <stop offset="1" stop-color="#281813"/>
    </linearGradient>
    <linearGradient id="band" x1="408" y1="330" x2="792" y2="630" gradientUnits="userSpaceOnUse">
      <stop stop-color="#E8C79D"/>
      <stop offset="1" stop-color="#C48A50"/>
    </linearGradient>
  </defs>
  <rect width="1200" height="900" rx="56" fill="url(#bg)"/>
  <circle cx="916" cy="226" r="154" fill="#FFFFFF" fill-opacity="0.28"/>
  <ellipse cx="592" cy="728" rx="324" ry="72" fill="#6E432A" fill-opacity="0.14"/>
  <path d="M388 300C388 277 406 259 429 259H771C794 259 812 277 812 300V690C812 716 791 737 765 737H435C409 737 388 716 388 690V300Z" fill="url(#box)"/>
  <path d="M392 360H808V532H392V360Z" fill="url(#band)"/>
  <path d="M600 326V738" stroke="#F6E8CF" stroke-width="16" stroke-linecap="round"/>
  <path d="M468 458L732 458" stroke="#281813" stroke-width="18" stroke-linecap="round" stroke-opacity="0.28"/>
  <path d="M460 603C536 571 601 553 743 522" stroke="#F6E8CF" stroke-width="14" stroke-linecap="round" stroke-opacity="0.8"/>
  <path d="M494 397C532 381 553 378 600 378C646 378 668 382 704 397" stroke="#F6E8CF" stroke-width="10" stroke-linecap="round"/>
  <text x="600" y="475" text-anchor="middle" fill="#231611" font-family="Arial, Helvetica, sans-serif" font-size="42" font-weight="700">Maska Butter</text>
  <text x="600" y="529" text-anchor="middle" fill="#241712" font-family="Arial, Helvetica, sans-serif" font-size="30" font-weight="700">Giftable shelf look</text>
  <rect x="82" y="126" width="282" height="136" rx="34" fill="#FFFFFF" fill-opacity="0.28"/>
  <text x="223" y="188" text-anchor="middle" fill="#6C4A35" font-family="Arial, Helvetica, sans-serif" font-size="32" font-weight="700">Premium</text>
  <text x="223" y="232" text-anchor="middle" fill="#8C6551" font-family="Arial, Helvetica, sans-serif" font-size="22" font-weight="600">gift shot</text>
</svg>
