<svg width="800" height="700" viewBox="0 0 800 700" fill="none" xmlns="http://www.w3.org/2000/svg">
  <defs>
    <linearGradient id="bg" x1="0" y1="0" x2="0" y2="1">
      <stop offset="0%" stop-color="#F8E2BD"/>
      <stop offset="100%" stop-color="#F2D0A0"/>
    </linearGradient>
    <linearGradient id="wrapperBlue" x1="0" y1="0" x2="1" y2="1">
      <stop offset="0%" stop-color="#195A9E"/>
      <stop offset="45%" stop-color="#1C77C6"/>
      <stop offset="100%" stop-color="#0C3F76"/>
    </linearGradient>
    <linearGradient id="wrapperCream" x1="0" y1="0" x2="1" y2="1">
      <stop offset="0%" stop-color="#F7E9D7"/>
      <stop offset="100%" stop-color="#E8CFA8"/>
    </linearGradient>
    <radialGradient id="shadow" cx="50%" cy="50%" r="50%">
      <stop offset="0%" stop-color="#4C2B0F" stop-opacity="0.38"/>
      <stop offset="100%" stop-color="#4C2B0F" stop-opacity="0"/>
    </radialGradient>
    <filter id="softShadow" x="-30%" y="-30%" width="160%" height="170%">
      <feDropShadow dx="0" dy="18" stdDeviation="16" flood-color="#4A2A0F" flood-opacity="0.18"/>
    </filter>
    <filter id="grain" x="-20%" y="-20%" width="140%" height="140%">
      <feTurbulence type="fractalNoise" baseFrequency="0.9" numOctaves="2" seed="7" result="noise"/>
      <feColorMatrix in="noise" type="saturate" values="0"/>
      <feComponentTransfer>
        <feFuncA type="table" tableValues="0 0.12"/>
      </feComponentTransfer>
    </filter>
    <pattern id="seedPattern" width="36" height="36" patternUnits="userSpaceOnUse">
      <circle cx="10" cy="12" r="3" fill="#7A4B24" opacity="0.42"/>
      <circle cx="20" cy="22" r="2.5" fill="#A96A39" opacity="0.38"/>
      <circle cx="28" cy="10" r="2.2" fill="#E1B46D" opacity="0.35"/>
      <circle cx="6" cy="28" r="1.8" fill="#F5E1C7" opacity="0.25"/>
    </pattern>
  </defs>

  <rect width="800" height="700" rx="48" fill="url(#bg)"/>
  <ellipse cx="398" cy="548" rx="182" ry="46" fill="url(#shadow)"/>

  <g filter="url(#softShadow)">
    <rect x="225" y="150" width="352" height="410" rx="40" fill="url(#wrapperBlue)"/>
    <rect x="225" y="150" width="352" height="410" rx="40" fill="url(#grain)" opacity="0.22"/>
    <path d="M225 230H577" stroke="#F8F0DE" stroke-width="18" stroke-linecap="round" opacity="0.9"/>
    <path d="M225 204H577" stroke="#F8F0DE" stroke-width="9" stroke-linecap="round" opacity="0.35"/>
    <path d="M225 270H577" stroke="#F8F0DE" stroke-width="7" stroke-linecap="round" opacity="0.25"/>

    <path d="M198 144C198 111 224 84 257 84H543C576 84 602 111 602 144V166H198V144Z" fill="url(#wrapperCream)"/>
    <path d="M198 166H602" stroke="#B68B55" stroke-width="10" opacity="0.4"/>
    <path d="M215 132C215 123 222 116 231 116H569C578 116 585 123 585 132V166H215V132Z" fill="#D6B481" opacity="0.8"/>

    <path d="M210 118C244 94 282 86 320 86C344 86 368 91 389 101C408 109 432 114 459 114C501 114 538 102 576 84L565 111C536 125 505 132 471 132C444 132 419 127 395 118C370 108 345 103 320 103C287 103 257 110 228 125L210 118Z" fill="#EFE0C9" opacity="0.86"/>

    <path d="M267 272H540C552 272 561 281 561 293V432C561 444 552 453 540 453H267C255 453 246 444 246 432V293C246 281 255 272 267 272Z" fill="url(#wrapperCream)" opacity="0.98"/>
    <path d="M267 272H540C552 272 561 281 561 293V314H246V293C246 281 255 272 267 272Z" fill="#FFFFFF" opacity="0.32"/>
    <rect x="246" y="286" width="315" height="167" rx="22" fill="url(#seedPattern)" opacity="0.48"/>
    <path d="M255 286H552" stroke="#FFFFFF" stroke-width="6" opacity="0.2"/>

    <g transform="translate(395 370) rotate(-10)">
      <rect x="-84" y="-22" width="168" height="84" rx="22" fill="#F1C9A0" opacity="0.35"/>
      <rect x="-108" y="-24" width="216" height="88" rx="24" fill="#0A2144"/>
      <path d="M-108 -24H108V8C67 -2 33 2 0 14C-31 25 -64 28 -108 20V-24Z" fill="#2C79C6"/>
      <path d="M-108 18C-72 11 -39 12 -8 22C25 32 61 35 108 28V64H-108V18Z" fill="#154A84"/>
      <path d="M-78 -3C-48 -15 -13 -18 18 -14C48 -11 81 -3 108 12V28C79 18 45 14 8 14C-28 14 -63 18 -108 28V12C-98 6 -89 1 -78 -3Z" fill="#4EA4EB" opacity="0.9"/>
      <text x="-56" y="14" fill="#FFFFFF" font-family="Arial, Helvetica, sans-serif" font-size="42" font-weight="700" letter-spacing="2">MASKA</text>
      <circle cx="77" cy="24" r="5" fill="#FFFFFF" opacity="0.55"/>
      <circle cx="88" cy="34" r="3" fill="#FFFFFF" opacity="0.35"/>
      <circle cx="96" cy="18" r="4" fill="#FFFFFF" opacity="0.35"/>
    </g>

    <g transform="translate(400 504)">
      <rect x="-104" y="-22" width="208" height="26" rx="13" fill="#4A2A0F" opacity="0.14"/>
      <path d="M-98 -8C-70 -18 -39 -22 0 -22C39 -22 70 -18 98 -8" stroke="#D6C5A5" stroke-width="6" stroke-linecap="round" opacity="0.8"/>
    </g>
  </g>
</svg>
