<svg width="1400" height="1000" viewBox="0 0 1400 1000" fill="none" xmlns="http://www.w3.org/2000/svg">
  <defs>
    <linearGradient id="bg" x1="0" y1="0" x2="1400" y2="1000" gradientUnits="userSpaceOnUse">
      <stop stop-color="#FFF8EF"/>
      <stop offset="1" stop-color="#E8C59A"/>
    </linearGradient>
    <linearGradient id="toast" x1="360" y1="300" x2="980" y2="740" gradientUnits="userSpaceOnUse">
      <stop stop-color="#D0A06F"/>
      <stop offset="1" stop-color="#9D673D"/>
    </linearGradient>
    <linearGradient id="spread" x1="440" y1="340" x2="920" y2="700" gradientUnits="userSpaceOnUse">
      <stop stop-color="#40261C"/>
      <stop offset="1" stop-color="#22130E"/>
    </linearGradient>
  </defs>
  <rect width="1400" height="1000" rx="60" fill="url(#bg)"/>
  <ellipse cx="690" cy="760" rx="410" ry="86" fill="#8A5634" fill-opacity="0.14"/>
  <path d="M360 670C360 635 386 605 421 599L976 503C1034 492 1084 535 1084 594V656C1084 701 1051 739 1006 747L450 845C395 855 360 812 360 761V670Z" fill="url(#toast)"/>
  <path d="M392 660C392 640 407 623 428 619L960 527C999 520 1033 547 1033 586V642C1033 673 1009 699 978 704L445 797C410 803 392 777 392 749V660Z" fill="#F1D5AF"/>
  <path d="M424 656L963 565" stroke="#D9B58A" stroke-width="10" stroke-linecap="round"/>
  <path d="M437 700L969 607" stroke="#D9B58A" stroke-width="10" stroke-linecap="round"/>
  <path d="M462 574C462 541 489 513 522 507L808 459C844 453 877 476 883 511L914 688C920 724 895 758 859 765L563 816C520 823 479 795 472 752L462 574Z" fill="url(#spread)"/>
  <circle cx="604" cy="500" r="15" fill="#F2C78A" fill-opacity="0.55"/>
  <circle cx="676" cy="488" r="15" fill="#F2C78A" fill-opacity="0.45"/>
  <circle cx="754" cy="474" r="15" fill="#F2C78A" fill-opacity="0.5"/>
  <path d="M540 621C604 598 680 587 752 575C805 566 849 563 892 561" stroke="#7A4A2D" stroke-width="32" stroke-linecap="round"/>
  <path d="M494 670C568 656 645 646 739 630C801 619 859 614 912 612" stroke="#B67D52" stroke-width="18" stroke-linecap="round"/>
  <rect x="104" y="138" width="254" height="136" rx="34" fill="#FFFFFF" fill-opacity="0.28"/>
  <text x="232" y="198" text-anchor="middle" fill="#6C4A35" font-family="Arial, Helvetica, sans-serif" font-size="32" font-weight="700">Breakfast</text>
  <text x="232" y="242" text-anchor="middle" fill="#8C6551" font-family="Arial, Helvetica, sans-serif" font-size="22" font-weight="600">toast moment</text>
</svg>
